<mxfile host="www.draw.io" modified="2020-01-07T06:21:48.215Z" agent="Mozilla/5.0 (Windows NT 10.0; WOW64) AppleWebKit/537.36 (KHTML, like Gecko) Chrome/74.0.3729.131 Safari/537.36" etag="p3xGBF-0RvB8MOixwqys" version="12.4.9" type="github">
  <diagram id="olb-ZeLmTvosfQkyr4Oh" name="Page-1">
    <mxGraphModel dx="1422" dy="723" grid="1" gridSize="10" guides="1" tooltips="1" connect="1" arrows="1" fold="1" page="1" pageScale="1" pageWidth="827" pageHeight="1169" math="0" shadow="0">
      <root>
        <mxCell id="0"/>
        <mxCell id="1" parent="0"/>
        <mxCell id="Cvxg1IV_PgxWlc9V6BDF-1" value="" style="shape=mxgraph.bpmn.shape;html=1;verticalLabelPosition=bottom;labelBackgroundColor=#ffffff;verticalAlign=top;align=center;perimeter=ellipsePerimeter;outlineConnect=0;outline=standard;symbol=general;" parent="1" vertex="1">
          <mxGeometry x="130" y="340" width="50" height="50" as="geometry"/>
        </mxCell>
      </root>
    </mxGraphModel>
  </diagram>
</mxfile>
